<?xml version="1.0" encoding="UTF-8"?>
<svg xmlns="http://www.w3.org/2000/svg" xmlns:xlink="http://www.w3.org/1999/xlink"
     width="500" height="500" viewBox="-250.0 -250.0 500 500">
<defs>
</defs>
<rect x="-100.0" y="-100.0" width="200" height="200" stroke="black" stroke-width="12.5" fill="none" />
<rect x="-150.0" y="50.0" width="100.0" height="100.0" stroke="black" stroke-width="6.25" fill="none" />
<rect x="-175.0" y="125.0" width="50.0" height="50.0" stroke="black" stroke-width="3.125" fill="none" />
<rect x="-187.5" y="162.5" width="25.0" height="25.0" stroke="black" stroke-width="1.5625" fill="none" />
<rect x="-137.5" y="162.5" width="25.0" height="25.0" stroke="black" stroke-width="1.5625" fill="none" />
<rect x="-187.5" y="112.5" width="25.0" height="25.0" stroke="black" stroke-width="1.5625" fill="none" />
<rect x="-137.5" y="112.5" width="25.0" height="25.0" stroke="black" stroke-width="1.5625" fill="none" />
<rect x="-75.0" y="125.0" width="50.0" height="50.0" stroke="black" stroke-width="3.125" fill="none" />
<rect x="-87.5" y="162.5" width="25.0" height="25.0" stroke="black" stroke-width="1.5625" fill="none" />
<rect x="-37.5" y="162.5" width="25.0" height="25.0" stroke="black" stroke-width="1.5625" fill="none" />
<rect x="-87.5" y="112.5" width="25.0" height="25.0" stroke="black" stroke-width="1.5625" fill="none" />
<rect x="-37.5" y="112.5" width="25.0" height="25.0" stroke="black" stroke-width="1.5625" fill="none" />
<rect x="-175.0" y="25.0" width="50.0" height="50.0" stroke="black" stroke-width="3.125" fill="none" />
<rect x="-187.5" y="62.5" width="25.0" height="25.0" stroke="black" stroke-width="1.5625" fill="none" />
<rect x="-137.5" y="62.5" width="25.0" height="25.0" stroke="black" stroke-width="1.5625" fill="none" />
<rect x="-187.5" y="12.5" width="25.0" height="25.0" stroke="black" stroke-width="1.5625" fill="none" />
<rect x="-137.5" y="12.5" width="25.0" height="25.0" stroke="black" stroke-width="1.5625" fill="none" />
<rect x="-75.0" y="25.0" width="50.0" height="50.0" stroke="black" stroke-width="3.125" fill="none" />
<rect x="-87.5" y="62.5" width="25.0" height="25.0" stroke="black" stroke-width="1.5625" fill="none" />
<rect x="-37.5" y="62.5" width="25.0" height="25.0" stroke="black" stroke-width="1.5625" fill="none" />
<rect x="-87.5" y="12.5" width="25.0" height="25.0" stroke="black" stroke-width="1.5625" fill="none" />
<rect x="-37.5" y="12.5" width="25.0" height="25.0" stroke="black" stroke-width="1.5625" fill="none" />
<rect x="50.0" y="50.0" width="100.0" height="100.0" stroke="black" stroke-width="6.25" fill="none" />
<rect x="25.0" y="125.0" width="50.0" height="50.0" stroke="black" stroke-width="3.125" fill="none" />
<rect x="12.5" y="162.5" width="25.0" height="25.0" stroke="black" stroke-width="1.5625" fill="none" />
<rect x="62.5" y="162.5" width="25.0" height="25.0" stroke="black" stroke-width="1.5625" fill="none" />
<rect x="12.5" y="112.5" width="25.0" height="25.0" stroke="black" stroke-width="1.5625" fill="none" />
<rect x="62.5" y="112.5" width="25.0" height="25.0" stroke="black" stroke-width="1.5625" fill="none" />
<rect x="125.0" y="125.0" width="50.0" height="50.0" stroke="black" stroke-width="3.125" fill="none" />
<rect x="112.5" y="162.5" width="25.0" height="25.0" stroke="black" stroke-width="1.5625" fill="none" />
<rect x="162.5" y="162.5" width="25.0" height="25.0" stroke="black" stroke-width="1.5625" fill="none" />
<rect x="112.5" y="112.5" width="25.0" height="25.0" stroke="black" stroke-width="1.5625" fill="none" />
<rect x="162.5" y="112.5" width="25.0" height="25.0" stroke="black" stroke-width="1.5625" fill="none" />
<rect x="25.0" y="25.0" width="50.0" height="50.0" stroke="black" stroke-width="3.125" fill="none" />
<rect x="12.5" y="62.5" width="25.0" height="25.0" stroke="black" stroke-width="1.5625" fill="none" />
<rect x="62.5" y="62.5" width="25.0" height="25.0" stroke="black" stroke-width="1.5625" fill="none" />
<rect x="12.5" y="12.5" width="25.0" height="25.0" stroke="black" stroke-width="1.5625" fill="none" />
<rect x="62.5" y="12.5" width="25.0" height="25.0" stroke="black" stroke-width="1.5625" fill="none" />
<rect x="125.0" y="25.0" width="50.0" height="50.0" stroke="black" stroke-width="3.125" fill="none" />
<rect x="112.5" y="62.5" width="25.0" height="25.0" stroke="black" stroke-width="1.5625" fill="none" />
<rect x="162.5" y="62.5" width="25.0" height="25.0" stroke="black" stroke-width="1.5625" fill="none" />
<rect x="112.5" y="12.5" width="25.0" height="25.0" stroke="black" stroke-width="1.5625" fill="none" />
<rect x="162.5" y="12.5" width="25.0" height="25.0" stroke="black" stroke-width="1.5625" fill="none" />
<rect x="-150.0" y="-150.0" width="100.0" height="100.0" stroke="black" stroke-width="6.25" fill="none" />
<rect x="-175.0" y="-75.0" width="50.0" height="50.0" stroke="black" stroke-width="3.125" fill="none" />
<rect x="-187.5" y="-37.5" width="25.0" height="25.0" stroke="black" stroke-width="1.5625" fill="none" />
<rect x="-137.5" y="-37.5" width="25.0" height="25.0" stroke="black" stroke-width="1.5625" fill="none" />
<rect x="-187.5" y="-87.5" width="25.0" height="25.0" stroke="black" stroke-width="1.5625" fill="none" />
<rect x="-137.5" y="-87.5" width="25.0" height="25.0" stroke="black" stroke-width="1.5625" fill="none" />
<rect x="-75.0" y="-75.0" width="50.0" height="50.0" stroke="black" stroke-width="3.125" fill="none" />
<rect x="-87.5" y="-37.5" width="25.0" height="25.0" stroke="black" stroke-width="1.5625" fill="none" />
<rect x="-37.5" y="-37.5" width="25.0" height="25.0" stroke="black" stroke-width="1.5625" fill="none" />
<rect x="-87.5" y="-87.5" width="25.0" height="25.0" stroke="black" stroke-width="1.5625" fill="none" />
<rect x="-37.5" y="-87.5" width="25.0" height="25.0" stroke="black" stroke-width="1.5625" fill="none" />
<rect x="-175.0" y="-175.0" width="50.0" height="50.0" stroke="black" stroke-width="3.125" fill="none" />
<rect x="-187.5" y="-137.5" width="25.0" height="25.0" stroke="black" stroke-width="1.5625" fill="none" />
<rect x="-137.5" y="-137.5" width="25.0" height="25.0" stroke="black" stroke-width="1.5625" fill="none" />
<rect x="-187.5" y="-187.5" width="25.0" height="25.0" stroke="black" stroke-width="1.5625" fill="none" />
<rect x="-137.5" y="-187.5" width="25.0" height="25.0" stroke="black" stroke-width="1.5625" fill="none" />
<rect x="-75.0" y="-175.0" width="50.0" height="50.0" stroke="black" stroke-width="3.125" fill="none" />
<rect x="-87.5" y="-137.5" width="25.0" height="25.0" stroke="black" stroke-width="1.5625" fill="none" />
<rect x="-37.5" y="-137.5" width="25.0" height="25.0" stroke="black" stroke-width="1.5625" fill="none" />
<rect x="-87.5" y="-187.5" width="25.0" height="25.0" stroke="black" stroke-width="1.5625" fill="none" />
<rect x="-37.5" y="-187.5" width="25.0" height="25.0" stroke="black" stroke-width="1.5625" fill="none" />
<rect x="50.0" y="-150.0" width="100.0" height="100.0" stroke="black" stroke-width="6.25" fill="none" />
<rect x="25.0" y="-75.0" width="50.0" height="50.0" stroke="black" stroke-width="3.125" fill="none" />
<rect x="12.5" y="-37.5" width="25.0" height="25.0" stroke="black" stroke-width="1.5625" fill="none" />
<rect x="62.5" y="-37.5" width="25.0" height="25.0" stroke="black" stroke-width="1.5625" fill="none" />
<rect x="12.5" y="-87.5" width="25.0" height="25.0" stroke="black" stroke-width="1.5625" fill="none" />
<rect x="62.5" y="-87.5" width="25.0" height="25.0" stroke="black" stroke-width="1.5625" fill="none" />
<rect x="125.0" y="-75.0" width="50.0" height="50.0" stroke="black" stroke-width="3.125" fill="none" />
<rect x="112.5" y="-37.5" width="25.0" height="25.0" stroke="black" stroke-width="1.5625" fill="none" />
<rect x="162.5" y="-37.5" width="25.0" height="25.0" stroke="black" stroke-width="1.5625" fill="none" />
<rect x="112.5" y="-87.5" width="25.0" height="25.0" stroke="black" stroke-width="1.5625" fill="none" />
<rect x="162.5" y="-87.5" width="25.0" height="25.0" stroke="black" stroke-width="1.5625" fill="none" />
<rect x="25.0" y="-175.0" width="50.0" height="50.0" stroke="black" stroke-width="3.125" fill="none" />
<rect x="12.5" y="-137.5" width="25.0" height="25.0" stroke="black" stroke-width="1.5625" fill="none" />
<rect x="62.5" y="-137.5" width="25.0" height="25.0" stroke="black" stroke-width="1.5625" fill="none" />
<rect x="12.5" y="-187.5" width="25.0" height="25.0" stroke="black" stroke-width="1.5625" fill="none" />
<rect x="62.5" y="-187.5" width="25.0" height="25.0" stroke="black" stroke-width="1.5625" fill="none" />
<rect x="125.0" y="-175.0" width="50.0" height="50.0" stroke="black" stroke-width="3.125" fill="none" />
<rect x="112.5" y="-137.5" width="25.0" height="25.0" stroke="black" stroke-width="1.5625" fill="none" />
<rect x="162.5" y="-137.5" width="25.0" height="25.0" stroke="black" stroke-width="1.5625" fill="none" />
<rect x="112.5" y="-187.5" width="25.0" height="25.0" stroke="black" stroke-width="1.5625" fill="none" />
<rect x="162.5" y="-187.5" width="25.0" height="25.0" stroke="black" stroke-width="1.5625" fill="none" />
</svg>